# xmcd CD database file
#
# Track frame offsets:
#	150
#	15030
#	25742
#	46690
#	59705
#	76565
#	90367
#	105605
#	122855
#	136467
#
# Disc length: 2031 seconds
#
# Revision: 0
# Processed by: cddbd v1.5PL3 Copyright (c) Steve Scherf et al.
# Submitted via: CDex 1.50beta10
#
DISCID=6a07ed0a
DTITLE=Gino Paoli - Le Canzoni D'amore Di
DYEAR=1987
DGENRE=Jazz
TTITLE0=Il Cielo In Una Stanza
TTITLE1=Senza Fine
TTITLE2=Angela
TTITLE3=Sassi
TTITLE4=A Un Amico
TTITLE5=Sapore Di Sale
TTITLE6=Che Cosa C'e
TTITLE7=Innamorati
TTITLE8=Prima Di Verderti
TTITLE9=Domani
EXTD=YEAR: 1987
EXTT0=
EXTT1=
EXTT2=
EXTT3=
EXTT4=
EXTT5=
EXTT6=
EXTT7=
EXTT8=
EXTT9=
PLAYORDER=
